# xmcd CD Database Entry
#
# Track frame offsets:
# 150
# 42241
# 89563
# 119791
# 135626
# 163633
# 200866
# 226618
# 254966
#
# Disc length: 3868 seconds
#
# Revision: 2
# Processed by: cddbd v1.4b42PL1 Copyright (c) Steve Scherf et al.
# Submitted via: tcd 2.0b
#
DISCID=870f1a09
DTITLE=Beethoven - Beethoven
DYEAR=1900
DGENRE=
TTITLE0=Egmont op. 84  Overture
TTITLE1=Symphony No. 6 in F major op. 68 "Pastorale"  Allegro ma non 
TTITLE1=troppo
TTITLE2=Rondo a capriccio in G major op. 129  "Rage over the lost Pen
TTITLE2=ny"
TTITLE3=Septet in E flat major op. 20  Tempo di Minuetto
TTITLE4=Symphony No. 3 in E flat major op. 55 "Eroica"  Scherzo: Alle
TTITLE4=gro vivace
TTITLE5=Romance for Violin and Orchestra  No. 2 in F major op. 50
TTITLE6=Sonata No. 8 in C minor op. 13 "Pathetique"  Adagio cantabile
TTITLE6=
TTITLE7=Sonata No. 14 in C sharp minor op. 27/2 "Moonlight"  Adagio s
TTITLE7=ostenuto
TTITLE8=Symphony No. 5 in C minor op. 67  Allegro con brio
EXTD=
EXTT0=
EXTT1=
EXTT2=
EXTT3=
EXTT4=
EXTT5=
EXTT6=
EXTT7=
EXTT8=
PLAYORDER=
